<svg id="Layer_1" data-name="Layer 1" xmlns="http://www.w3.org/2000/svg" viewBox="0 0 12 16"><defs><style>.cls-1{fill:#d3d3d3}</style></defs><title>Artboard 1</title><g id="Octicons"><g id="heart"><path id="Shape" class="cls-1" d="M11.2 3A2.88 2.88 0 0 0 9 2a2.84 2.84 0 0 0-2.2 1A6.5 6.5 0 0 0 6 4a5.84 5.84 0 0 0-.8-1A2.76 2.76 0 0 0 3 2 2.9 2.9 0 0 0 .8 3 3.15 3.15 0 0 0 0 5a6 6 0 0 0 .67 2.67C1.25 8.82 3 10.61 6 13c3-2.39 4.77-4.17 5.34-5.33A6.18 6.18 0 0 0 12 5a3.25 3.25 0 0 0-.8-2z"/></g></g></svg>